<svg width="500" height="200" xmlns="http://www.w3.org/2000/svg">
    <style>
        table {
        border-collapse: collapse;
        font-family: Arial, sans-serif;
        font-size: 14px;
        width: 100%;
        }
        th, td {
        border: 1px solid #ddd;
        padding: 8px;
        text-align: left;
        }
        th {
        background-color: #f2f2f2;
        }
    </style>
    <rect x="0" y="0" width="500" height="200" fill="#fff"/>
    <text x="10" y="25" font-size="20">Repos I Created</text>
    <text x="20" y="60" font-weight="bold">No.</text>
    <text x="70" y="60" font-weight="bold">Name</text>
    <text x="150" y="60" font-weight="bold">Language</text>
    <text x="230" y="60" font-weight="bold">Stars</text>
    <text x="280" y="60" font-weight="bold">Forks</text>
    <text x="350" y="60" font-weight="bold">Last Update</text>
    <line x1="10" y1="70" x2="490" y2="70" stroke="#000" stroke-width="1"/>
    <text x="20" y="90">1</text>
    <a href="https://github.com/j178/leetgo">
        <text x="70" y="90">leetgo</text>
    </a>
    <text x="150" y="90">Go</text>
    <text x="330" y="90">381</text>
    <text x="380" y="90">18</text>
    <text x="450" y="90">2023-05-11</text>
    <line x1="10" y1="100" x2="490" y2="100" stroke="#000" stroke-width="1"/>
    <text x="20" y="120">2</text>
    <a href="https://github.com/j178/chatgpt">
        <text x="70" y="120">chatgpt</text>
    </a>
    <text x="250" y="120">Go</text>
    <text x="330" y="120">352</text>
    <text x="380" y="120">28</text>
    <text x="450" y="120">2023-04-29</text>
    <line x1="10" y1="130" x2="490" y2="130" stroke="#000" stroke-width="1"/>
    <text x="20" y="150">3</text>
    <a href="https://github.com/j178/fanfou-cli">
        <text x="70" y="150">fanfou-cli</text>
    </a>
    <text x="250" y="150">Python</text>
    <text x="330" y="150">22</text>
    <text x="380" y="150">5</text>
    <text x="450" y="150">2017-06-09</text>
    <line x1="10" y1="160" x2="490" y2="160" stroke="#000" stroke-width="1"/>
    <text x="20" y="180">4</text>
    <a href="https://github.com/j178/xiaoai-shutdown">
        <text x="70" y="180">xiaoai-shutdown</text>
    </a>
    <text x="250" y="180">Python</text>
    <text x="330" y="180">17</text>
    <text x="380" y="180">0</text>
    <text x="450" y="180">2023-04-07</text>
    <line x1="10" y1="190" x2="490" y2="190" stroke="#000" stroke-width="1"/>
</svg>
